<mxfile host="Electron" agent="Mozilla/5.0 (Windows NT 10.0; Win64; x64) AppleWebKit/537.36 (KHTML, like Gecko) draw.io/24.7.17 Chrome/128.0.6613.36 Electron/32.0.1 Safari/537.36" version="24.7.17">
  <diagram name="Страница — 1" id="R9EU8fUsOi3KrNmTCvak">
    <mxGraphModel dx="2919" dy="1942" grid="1" gridSize="10" guides="1" tooltips="1" connect="1" arrows="1" fold="1" page="1" pageScale="1" pageWidth="1169" pageHeight="827" math="0" shadow="0">
      <root>
        <mxCell id="0" />
        <mxCell id="1" parent="0" />
        <mxCell id="yGzuOL3_YZ4nwxIyWXDd-37" style="edgeStyle=orthogonalEdgeStyle;rounded=0;orthogonalLoop=1;jettySize=auto;html=1;entryX=0.5;entryY=0;entryDx=0;entryDy=0;" edge="1" parent="1" source="yGzuOL3_YZ4nwxIyWXDd-1" target="yGzuOL3_YZ4nwxIyWXDd-36">
          <mxGeometry relative="1" as="geometry" />
        </mxCell>
        <object placeholders="1" c4Name="Обычный пользователь" c4Type="Person" c4Description="Хочет фотографировать стикеры и собирать их" label="&lt;font style=&quot;font-size: 16px&quot;&gt;&lt;b&gt;%c4Name%&lt;/b&gt;&lt;/font&gt;&lt;div&gt;[%c4Type%]&lt;/div&gt;&lt;br&gt;&lt;div&gt;&lt;font style=&quot;font-size: 11px&quot;&gt;&lt;font color=&quot;#cccccc&quot;&gt;%c4Description%&lt;/font&gt;&lt;/div&gt;" id="yGzuOL3_YZ4nwxIyWXDd-1">
          <mxCell style="html=1;fontSize=11;dashed=0;whiteSpace=wrap;fillColor=#083F75;strokeColor=#06315C;fontColor=#ffffff;shape=mxgraph.c4.person2;align=center;metaEdit=1;points=[[0.5,0,0],[1,0.5,0],[1,0.75,0],[0.75,1,0],[0.5,1,0],[0.25,1,0],[0,0.75,0],[0,0.5,0]];resizable=0;" vertex="1" parent="1">
            <mxGeometry x="-160" y="-340" width="200" height="180" as="geometry" />
          </mxCell>
        </object>
        <mxCell id="yGzuOL3_YZ4nwxIyWXDd-38" style="edgeStyle=orthogonalEdgeStyle;rounded=0;orthogonalLoop=1;jettySize=auto;html=1;exitX=0.5;exitY=1;exitDx=0;exitDy=0;exitPerimeter=0;" edge="1" parent="1" source="yGzuOL3_YZ4nwxIyWXDd-2">
          <mxGeometry relative="1" as="geometry">
            <mxPoint y="-40" as="targetPoint" />
            <Array as="points">
              <mxPoint x="1" y="-100" />
            </Array>
          </mxGeometry>
        </mxCell>
        <object placeholders="1" c4Name="Автор" c4Type="Person" c4Description="Автор, который хочет загрузить свой стикер, чтобы другие пользователи подписались на него" label="&lt;font style=&quot;font-size: 16px&quot;&gt;&lt;b&gt;%c4Name%&lt;/b&gt;&lt;/font&gt;&lt;div&gt;[%c4Type%]&lt;/div&gt;&lt;br&gt;&lt;div&gt;&lt;font style=&quot;font-size: 11px&quot;&gt;&lt;font color=&quot;#cccccc&quot;&gt;%c4Description%&lt;/font&gt;&lt;/div&gt;" id="yGzuOL3_YZ4nwxIyWXDd-2">
          <mxCell style="html=1;fontSize=11;dashed=0;whiteSpace=wrap;fillColor=#083F75;strokeColor=#06315C;fontColor=#ffffff;shape=mxgraph.c4.person2;align=center;metaEdit=1;points=[[0.5,0,0],[1,0.5,0],[1,0.75,0],[0.75,1,0],[0.5,1,0],[0.25,1,0],[0,0.75,0],[0,0.5,0]];resizable=0;" vertex="1" parent="1">
            <mxGeometry x="170" y="-340" width="200" height="180" as="geometry" />
          </mxCell>
        </object>
        <mxCell id="yGzuOL3_YZ4nwxIyWXDd-25" style="edgeStyle=orthogonalEdgeStyle;rounded=0;orthogonalLoop=1;jettySize=auto;html=1;entryX=0;entryY=0.5;entryDx=0;entryDy=0;" edge="1" parent="1" source="yGzuOL3_YZ4nwxIyWXDd-4" target="yGzuOL3_YZ4nwxIyWXDd-13">
          <mxGeometry relative="1" as="geometry" />
        </mxCell>
        <object placeholders="1" c4Name="Auth" c4Type="Software System" c4Description="VK ID, Google Auth, etc..." label="&lt;font style=&quot;font-size: 16px&quot;&gt;&lt;b&gt;%c4Name%&lt;/b&gt;&lt;/font&gt;&lt;div&gt;[%c4Type%]&lt;/div&gt;&lt;br&gt;&lt;div&gt;&lt;font style=&quot;font-size: 11px&quot;&gt;&lt;font color=&quot;#cccccc&quot;&gt;%c4Description%&lt;/font&gt;&lt;/div&gt;" id="yGzuOL3_YZ4nwxIyWXDd-4">
          <mxCell style="rounded=1;whiteSpace=wrap;html=1;labelBackgroundColor=none;fillColor=#8C8496;fontColor=#ffffff;align=center;arcSize=10;strokeColor=#736782;metaEdit=1;resizable=0;points=[[0.25,0,0],[0.5,0,0],[0.75,0,0],[1,0.25,0],[1,0.5,0],[1,0.75,0],[0.75,1,0],[0.5,1,0],[0.25,1,0],[0,0.75,0],[0,0.5,0],[0,0.25,0]];" vertex="1" parent="1">
            <mxGeometry x="-560" width="240" height="120" as="geometry" />
          </mxCell>
        </object>
        <object placeholders="1" c4Name="Сервис карт" c4Type="Software System" c4Description="Яндекс карты, 2Гис..." label="&lt;font style=&quot;font-size: 16px&quot;&gt;&lt;b&gt;%c4Name%&lt;/b&gt;&lt;/font&gt;&lt;div&gt;[%c4Type%]&lt;/div&gt;&lt;br&gt;&lt;div&gt;&lt;font style=&quot;font-size: 11px&quot;&gt;&lt;font color=&quot;#cccccc&quot;&gt;%c4Description%&lt;/font&gt;&lt;/div&gt;" id="yGzuOL3_YZ4nwxIyWXDd-6">
          <mxCell style="rounded=1;whiteSpace=wrap;html=1;labelBackgroundColor=none;fillColor=#8C8496;fontColor=#ffffff;align=center;arcSize=10;strokeColor=#736782;metaEdit=1;resizable=0;points=[[0.25,0,0],[0.5,0,0],[0.75,0,0],[1,0.25,0],[1,0.5,0],[1,0.75,0],[0.75,1,0],[0.5,1,0],[0.25,1,0],[0,0.75,0],[0,0.5,0],[0,0.25,0]];" vertex="1" parent="1">
            <mxGeometry x="520" y="190" width="240" height="120" as="geometry" />
          </mxCell>
        </object>
        <object placeholders="1" c4Name="Моя система" c4Type="SystemScopeBoundary" c4Application="Software System" label="&lt;font style=&quot;font-size: 16px&quot;&gt;&lt;b&gt;&lt;div style=&quot;text-align: left&quot;&gt;%c4Name%&lt;/div&gt;&lt;/b&gt;&lt;/font&gt;&lt;div style=&quot;text-align: left&quot;&gt;[%c4Application%]&lt;/div&gt;" id="yGzuOL3_YZ4nwxIyWXDd-12">
          <mxCell style="rounded=1;fontSize=11;whiteSpace=wrap;html=1;dashed=1;arcSize=20;fillColor=none;strokeColor=#666666;fontColor=#333333;labelBackgroundColor=none;align=left;verticalAlign=bottom;labelBorderColor=none;spacingTop=0;spacing=10;dashPattern=8 4;metaEdit=1;rotatable=0;perimeter=rectanglePerimeter;noLabel=0;labelPadding=0;allowArrows=0;connectable=0;expand=0;recursiveResize=0;editable=1;pointerEvents=0;absoluteArcSize=1;points=[[0.25,0,0],[0.5,0,0],[0.75,0,0],[1,0.25,0],[1,0.5,0],[1,0.75,0],[0.75,1,0],[0.5,1,0],[0.25,1,0],[0,0.75,0],[0,0.5,0],[0,0.25,0]];" vertex="1" parent="1">
            <mxGeometry x="-270" y="-60" width="700" height="520" as="geometry" />
          </mxCell>
        </object>
        <mxCell id="yGzuOL3_YZ4nwxIyWXDd-26" style="edgeStyle=orthogonalEdgeStyle;rounded=0;orthogonalLoop=1;jettySize=auto;html=1;entryX=0;entryY=0.5;entryDx=0;entryDy=0;" edge="1" parent="1" source="yGzuOL3_YZ4nwxIyWXDd-13" target="yGzuOL3_YZ4nwxIyWXDd-14">
          <mxGeometry relative="1" as="geometry" />
        </mxCell>
        <mxCell id="yGzuOL3_YZ4nwxIyWXDd-49" style="edgeStyle=orthogonalEdgeStyle;rounded=0;orthogonalLoop=1;jettySize=auto;html=1;exitX=0.5;exitY=1;exitDx=0;exitDy=0;" edge="1" parent="1" source="yGzuOL3_YZ4nwxIyWXDd-13">
          <mxGeometry relative="1" as="geometry">
            <mxPoint x="-179.88235294117658" y="120" as="targetPoint" />
          </mxGeometry>
        </mxCell>
        <mxCell id="yGzuOL3_YZ4nwxIyWXDd-13" value="Авторизация" style="rounded=1;whiteSpace=wrap;html=1;" vertex="1" parent="1">
          <mxGeometry x="-240" y="30" width="120" height="60" as="geometry" />
        </mxCell>
        <mxCell id="yGzuOL3_YZ4nwxIyWXDd-29" style="edgeStyle=orthogonalEdgeStyle;rounded=0;orthogonalLoop=1;jettySize=auto;html=1;entryX=0;entryY=0.5;entryDx=0;entryDy=0;" edge="1" parent="1" source="yGzuOL3_YZ4nwxIyWXDd-14" target="yGzuOL3_YZ4nwxIyWXDd-20">
          <mxGeometry relative="1" as="geometry" />
        </mxCell>
        <mxCell id="yGzuOL3_YZ4nwxIyWXDd-14" value="Кабинет Автора" style="rounded=1;whiteSpace=wrap;html=1;" vertex="1" parent="1">
          <mxGeometry x="100" y="30" width="120" height="60" as="geometry" />
        </mxCell>
        <mxCell id="yGzuOL3_YZ4nwxIyWXDd-42" style="edgeStyle=orthogonalEdgeStyle;rounded=0;orthogonalLoop=1;jettySize=auto;html=1;entryX=0.5;entryY=0;entryDx=0;entryDy=0;" edge="1" parent="1" source="yGzuOL3_YZ4nwxIyWXDd-15" target="yGzuOL3_YZ4nwxIyWXDd-16">
          <mxGeometry relative="1" as="geometry" />
        </mxCell>
        <mxCell id="yGzuOL3_YZ4nwxIyWXDd-15" value="Коллекции" style="rounded=1;whiteSpace=wrap;html=1;" vertex="1" parent="1">
          <mxGeometry x="30" y="240" width="120" height="60" as="geometry" />
        </mxCell>
        <mxCell id="yGzuOL3_YZ4nwxIyWXDd-45" style="edgeStyle=orthogonalEdgeStyle;rounded=0;orthogonalLoop=1;jettySize=auto;html=1;" edge="1" parent="1" source="yGzuOL3_YZ4nwxIyWXDd-16" target="yGzuOL3_YZ4nwxIyWXDd-44">
          <mxGeometry relative="1" as="geometry" />
        </mxCell>
        <mxCell id="yGzuOL3_YZ4nwxIyWXDd-16" value="ML модуль поиска схожих" style="rounded=1;whiteSpace=wrap;html=1;" vertex="1" parent="1">
          <mxGeometry x="180" y="345" width="120" height="60" as="geometry" />
        </mxCell>
        <object placeholders="1" c4Name="Хранилище медиа" c4Type="Software System" c4Description="Яндекс С3" label="&lt;font style=&quot;font-size: 16px&quot;&gt;&lt;b&gt;%c4Name%&lt;/b&gt;&lt;/font&gt;&lt;div&gt;[%c4Type%]&lt;/div&gt;&lt;br&gt;&lt;div&gt;&lt;font style=&quot;font-size: 11px&quot;&gt;&lt;font color=&quot;#cccccc&quot;&gt;%c4Description%&lt;/font&gt;&lt;/div&gt;" id="yGzuOL3_YZ4nwxIyWXDd-17">
          <mxCell style="rounded=1;whiteSpace=wrap;html=1;labelBackgroundColor=none;fillColor=#8C8496;fontColor=#ffffff;align=center;arcSize=10;strokeColor=#736782;metaEdit=1;resizable=0;points=[[0.25,0,0],[0.5,0,0],[0.75,0,0],[1,0.25,0],[1,0.5,0],[1,0.75,0],[0.75,1,0],[0.5,1,0],[0.25,1,0],[0,0.75,0],[0,0.5,0],[0,0.25,0]];" vertex="1" parent="1">
            <mxGeometry x="500" y="380" width="240" height="120" as="geometry" />
          </mxCell>
        </object>
        <mxCell id="yGzuOL3_YZ4nwxIyWXDd-34" style="edgeStyle=orthogonalEdgeStyle;rounded=0;orthogonalLoop=1;jettySize=auto;html=1;entryX=0.5;entryY=1;entryDx=0;entryDy=0;" edge="1" parent="1" source="yGzuOL3_YZ4nwxIyWXDd-18" target="yGzuOL3_YZ4nwxIyWXDd-13">
          <mxGeometry relative="1" as="geometry">
            <mxPoint x="-170" y="80" as="targetPoint" />
          </mxGeometry>
        </mxCell>
        <mxCell id="yGzuOL3_YZ4nwxIyWXDd-18" value="Пользователи" style="shape=cylinder3;whiteSpace=wrap;html=1;boundedLbl=1;backgroundOutline=1;size=15;" vertex="1" parent="1">
          <mxGeometry x="-230" y="120" width="100" height="100" as="geometry" />
        </mxCell>
        <mxCell id="yGzuOL3_YZ4nwxIyWXDd-47" style="edgeStyle=orthogonalEdgeStyle;rounded=0;orthogonalLoop=1;jettySize=auto;html=1;entryX=1;entryY=0.5;entryDx=0;entryDy=0;" edge="1" parent="1" source="yGzuOL3_YZ4nwxIyWXDd-20" target="yGzuOL3_YZ4nwxIyWXDd-36">
          <mxGeometry relative="1" as="geometry" />
        </mxCell>
        <mxCell id="yGzuOL3_YZ4nwxIyWXDd-20" value="Модуль рассылки оповещений" style="rounded=1;whiteSpace=wrap;html=1;" vertex="1" parent="1">
          <mxGeometry x="310" y="-40" width="120" height="60" as="geometry" />
        </mxCell>
        <mxCell id="yGzuOL3_YZ4nwxIyWXDd-24" style="edgeStyle=orthogonalEdgeStyle;rounded=0;orthogonalLoop=1;jettySize=auto;html=1;entryX=1;entryY=0.5;entryDx=0;entryDy=0;entryPerimeter=0;" edge="1" parent="1" source="yGzuOL3_YZ4nwxIyWXDd-13" target="yGzuOL3_YZ4nwxIyWXDd-4">
          <mxGeometry relative="1" as="geometry" />
        </mxCell>
        <mxCell id="yGzuOL3_YZ4nwxIyWXDd-39" style="edgeStyle=orthogonalEdgeStyle;rounded=0;orthogonalLoop=1;jettySize=auto;html=1;entryX=0.5;entryY=0;entryDx=0;entryDy=0;" edge="1" parent="1" source="yGzuOL3_YZ4nwxIyWXDd-36" target="yGzuOL3_YZ4nwxIyWXDd-13">
          <mxGeometry relative="1" as="geometry" />
        </mxCell>
        <mxCell id="yGzuOL3_YZ4nwxIyWXDd-40" style="edgeStyle=orthogonalEdgeStyle;rounded=0;orthogonalLoop=1;jettySize=auto;html=1;entryX=0.5;entryY=0;entryDx=0;entryDy=0;" edge="1" parent="1" source="yGzuOL3_YZ4nwxIyWXDd-36" target="yGzuOL3_YZ4nwxIyWXDd-14">
          <mxGeometry relative="1" as="geometry" />
        </mxCell>
        <mxCell id="yGzuOL3_YZ4nwxIyWXDd-41" style="edgeStyle=orthogonalEdgeStyle;rounded=0;orthogonalLoop=1;jettySize=auto;html=1;entryX=0.5;entryY=0;entryDx=0;entryDy=0;" edge="1" parent="1" source="yGzuOL3_YZ4nwxIyWXDd-36" target="yGzuOL3_YZ4nwxIyWXDd-15">
          <mxGeometry relative="1" as="geometry" />
        </mxCell>
        <mxCell id="yGzuOL3_YZ4nwxIyWXDd-36" value="мобильное приложение" style="rounded=1;whiteSpace=wrap;html=1;" vertex="1" parent="1">
          <mxGeometry x="-60" y="-40" width="120" height="60" as="geometry" />
        </mxCell>
        <mxCell id="yGzuOL3_YZ4nwxIyWXDd-43" style="edgeStyle=orthogonalEdgeStyle;rounded=0;orthogonalLoop=1;jettySize=auto;html=1;entryX=0;entryY=0.5;entryDx=0;entryDy=0;entryPerimeter=0;" edge="1" parent="1" source="yGzuOL3_YZ4nwxIyWXDd-15" target="yGzuOL3_YZ4nwxIyWXDd-6">
          <mxGeometry relative="1" as="geometry" />
        </mxCell>
        <mxCell id="yGzuOL3_YZ4nwxIyWXDd-44" value="бд коллекций" style="shape=cylinder3;whiteSpace=wrap;html=1;boundedLbl=1;backgroundOutline=1;size=15;" vertex="1" parent="1">
          <mxGeometry x="-10" y="330" width="80" height="90" as="geometry" />
        </mxCell>
        <mxCell id="yGzuOL3_YZ4nwxIyWXDd-46" style="edgeStyle=orthogonalEdgeStyle;rounded=0;orthogonalLoop=1;jettySize=auto;html=1;entryX=0.5;entryY=1;entryDx=0;entryDy=0;entryPerimeter=0;" edge="1" parent="1" source="yGzuOL3_YZ4nwxIyWXDd-17" target="yGzuOL3_YZ4nwxIyWXDd-44">
          <mxGeometry relative="1" as="geometry" />
        </mxCell>
        <mxCell id="yGzuOL3_YZ4nwxIyWXDd-48" style="edgeStyle=orthogonalEdgeStyle;rounded=0;orthogonalLoop=1;jettySize=auto;html=1;entryX=1;entryY=0.5;entryDx=0;entryDy=0;entryPerimeter=0;" edge="1" parent="1" source="yGzuOL3_YZ4nwxIyWXDd-20" target="yGzuOL3_YZ4nwxIyWXDd-18">
          <mxGeometry relative="1" as="geometry">
            <Array as="points">
              <mxPoint x="360" y="170" />
            </Array>
          </mxGeometry>
        </mxCell>
        <mxCell id="yGzuOL3_YZ4nwxIyWXDd-68" value="Статистика&lt;br&gt;(стрелочки ко всему)" style="rounded=1;whiteSpace=wrap;html=1;" vertex="1" parent="1">
          <mxGeometry x="-220" y="270" width="120" height="60" as="geometry" />
        </mxCell>
      </root>
    </mxGraphModel>
  </diagram>
</mxfile>
